<?xml version="1.0" standalone="no"?>
<!DOCTYPE svg PUBLIC "-//W3C//DTD SVG 20010904//EN"
 "http://www.w3.org/TR/2001/REC-SVG-20010904/DTD/svg10.dtd">
<svg version="1.0" xmlns="http://www.w3.org/2000/svg"
 width="500.000000pt" height="500.000000pt" viewBox="0 0 500.000000 500.000000"
 preserveAspectRatio="xMidYMid meet">

<g transform="translate(0.000000,500.000000) scale(0.100000,-0.100000)"
fill="#000000" stroke="none">
<path d="M0 2500 l0 -2500 2500 0 2500 0 0 2500 0 2500 -2500 0 -2500 0 0
-2500z m2785 1395 c175 -37 347 -115 487 -220 125 -95 161 -162 123 -236 -17
-31 -49 -49 -92 -49 -14 0 -70 25 -125 54 -118 65 -225 108 -345 138 -71 18
-116 22 -238 22 -134 -1 -160 -4 -238 -27 -106 -33 -149 -53 -245 -120 -68
-47 -210 -186 -233 -228 -9 -18 -5 -19 103 -19 265 0 830 -46 1164 -94 240
-35 598 -108 769 -157 272 -77 443 -181 512 -311 30 -56 32 -163 4 -225 -50
-109 -200 -196 -398 -229 -49 -8 -193 -18 -327 -21 l-239 -6 -16 -30 c-24 -44
-98 -145 -155 -211 -111 -128 -291 -244 -466 -302 -80 -26 -95 -28 -265 -28
-158 -1 -191 2 -265 23 -244 66 -411 160 -565 317 -147 150 -263 372 -305 585
l-11 56 -82 7 c-114 9 -207 26 -207 38 0 5 -8 8 -17 5 -43 -9 -228 76 -314
143 -85 68 -104 188 -39 255 90 93 297 154 596 177 l152 12 25 56 c66 142 209
317 346 421 117 89 340 185 491 212 65 11 349 6 415 -8z m-831 -2481 c9 -3 14
-10 11 -15 -3 -4 -12 -6 -20 -3 -37 14 -71 -36 -43 -64 15 -15 48 -16 48 -2 0
6 -4 10 -10 10 -5 0 -10 5 -10 10 0 6 9 10 21 10 16 0 20 -5 17 -27 -6 -56
-98 -34 -98 24 0 42 44 72 84 57z m154 -113 c-6 -2 -15 4 -20 13 -11 20 -37
21 -44 1 -4 -8 -12 -15 -19 -15 -10 0 -6 17 13 62 l27 61 26 -59 c16 -35 23
-61 17 -63z m139 104 c2 -6 -9 -11 -23 -10 -33 0 -53 -28 -38 -52 12 -20 54
-30 54 -14 0 6 -4 11 -10 11 -5 0 -10 5 -10 10 0 6 9 10 21 10 16 0 20 -5 17
-27 -2 -23 -9 -29 -34 -31 -19 -2 -38 3 -48 13 -24 24 -20 71 7 90 24 17 58
17 64 0z m153 -96 c0 -15 -17 -10 -24 6 -3 8 -14 15 -25 15 -10 0 -21 -7 -25
-15 -3 -8 -10 -15 -15 -15 -6 0 -3 17 6 38 8 20 20 48 25 62 10 24 11 23 34
-29 13 -29 24 -57 24 -62z m133 41 c4 0 7 16 7 35 0 19 5 35 10 35 6 0 10 -27
10 -60 0 -33 -2 -60 -5 -60 -3 0 -23 16 -45 36 l-40 36 0 -36 c0 -20 -4 -36
-10 -36 -6 0 -10 27 -10 62 l0 62 38 -37 c21 -20 41 -37 45 -37z m190 33 l15
-38 15 38 c9 20 21 37 26 37 15 0 14 -2 -15 -67 l-26 -58 -24 54 c-26 58 -29
71 -15 71 5 0 16 -17 24 -37z m192 27 c4 -6 -7 -10 -24 -10 -21 0 -31 -5 -31
-15 0 -9 9 -15 25 -15 14 0 25 -4 25 -10 0 -5 -11 -10 -25 -10 -16 0 -25 -6
-25 -15 0 -10 10 -15 30 -15 17 0 30 -4 30 -10 0 -5 -18 -10 -40 -10 l-40 0 0
60 0 60 34 0 c19 0 38 -4 41 -10z m119 0 c59 -22 36 -110 -29 -110 l-35 0 0
60 c0 65 8 72 64 50z m106 -15 c0 -21 5 -25 30 -25 26 0 30 4 30 26 0 14 4 23
10 19 6 -3 10 -31 10 -61 0 -30 -4 -54 -10 -54 -5 0 -10 11 -10 25 0 21 -5 25
-30 25 -25 0 -30 -4 -30 -25 0 -14 -4 -25 -10 -25 -6 0 -10 27 -10 60 0 33 4
60 10 60 6 0 10 -11 10 -25z m150 -35 c0 -33 -4 -60 -10 -60 -6 0 -10 27 -10
60 0 33 4 60 10 60 6 0 10 -27 10 -60z m-2090 -200 c0 -5 -7 -10 -15 -10 -11
0 -15 -12 -15 -50 0 -27 -4 -50 -10 -50 -5 0 -10 23 -10 50 0 39 -4 50 -16 50
-8 0 -12 5 -9 10 3 6 22 10 41 10 19 0 34 -4 34 -10z m101 -40 c24 0 29 4 29
26 0 14 4 23 10 19 6 -3 10 -31 10 -61 0 -30 -4 -54 -10 -54 -5 0 -10 11 -10
25 0 21 -5 25 -30 25 -25 0 -30 -4 -30 -25 0 -14 -4 -25 -10 -25 -5 0 -10 24
-10 53 0 57 13 87 18 43 3 -21 9 -26 33 -26z m179 40 c0 -5 -13 -10 -30 -10
-20 0 -30 -5 -30 -15 0 -9 9 -15 24 -15 14 0 28 -4 31 -10 4 -6 -7 -10 -24
-10 -21 0 -31 -5 -31 -15 0 -10 10 -15 29 -15 17 0 33 -4 36 -10 4 -6 -10 -10
-34 -10 l-41 0 0 60 0 60 35 0 c19 0 35 -4 35 -10z m223 -110 c-2 -3 -10 3
-17 13 -17 22 -52 22 -60 1 -4 -9 -9 -14 -12 -11 -4 3 4 32 17 63 l24 57 26
-59 c15 -33 25 -61 22 -64z m107 110 c12 -8 9 -10 -12 -10 -35 0 -36 -17 -3
-32 20 -9 25 -18 23 -37 -3 -29 -42 -42 -62 -20 -8 9 -6 11 11 6 12 -3 27 1
33 8 9 11 5 17 -19 30 -35 17 -40 39 -13 54 21 13 24 13 42 1z m135 0 c3 -5
-1 -10 -9 -10 -12 0 -16 -11 -16 -50 0 -27 -4 -50 -10 -50 -5 0 -10 23 -10 50
0 38 -4 50 -15 50 -8 0 -15 5 -15 10 0 6 15 10 34 10 19 0 38 -4 41 -10z m106
0 c20 -11 26 -45 8 -55 -7 -5 -5 -15 6 -31 8 -13 11 -24 5 -24 -5 0 -15 9 -22
20 -17 27 -36 25 -41 -2 -2 -13 -5 5 -6 40 -1 66 7 75 50 52z m169 -10 c39
-39 14 -100 -41 -100 -30 0 -59 31 -59 62 0 24 35 58 60 58 11 0 29 -9 40 -20z
m160 -21 c0 25 4 40 10 36 11 -7 14 -115 3 -115 -5 0 -25 19 -45 42 l-37 43
-1 -42 c0 -24 -4 -43 -10 -43 -6 0 -10 27 -10 62 l0 62 45 -44 45 -44 0 43z
m167 19 c27 -25 29 -45 7 -76 -29 -42 -104 -18 -104 35 0 27 32 63 57 63 9 0
27 -10 40 -22z m279 -20 c5 -18 8 -17 27 13 11 19 22 29 24 23 2 -7 -5 -27
-16 -45 -12 -19 -21 -43 -21 -54 -1 -12 -7 -4 -15 19 -7 21 -18 43 -24 49 -6
6 -11 17 -11 25 0 20 27 -3 36 -30z m261 26 c2 -7 -6 -10 -21 -7 -20 4 -28 0
-37 -21 -15 -32 2 -56 37 -56 13 0 24 -4 24 -10 0 -20 -59 -10 -74 12 -21 29
-20 40 5 72 21 27 59 33 66 10z m83 -40 c0 -40 2 -44 25 -44 14 0 25 -4 25
-10 0 -5 -16 -10 -35 -10 l-35 0 0 61 c0 37 4 58 10 54 6 -3 10 -26 10 -51z
m147 -42 c23 -3 28 6 36 73 3 18 5 10 6 -20 1 -56 -11 -75 -46 -75 -27 0 -43
27 -43 73 0 53 14 54 20 0 4 -40 9 -49 27 -51z m163 83 c6 -8 9 -23 5 -34 -3
-10 -1 -22 5 -26 20 -12 -9 -45 -40 -45 -30 0 -30 0 -30 60 0 57 1 60 24 60
13 0 29 -7 36 -15z m217 -77 c-2 -18 -4 -4 -4 32 0 36 2 50 4 33 2 -18 2 -48
0 -65z m83 32 c0 -33 -4 -60 -10 -60 -6 0 -10 27 -10 60 0 33 4 60 10 60 6 0
10 -27 10 -60z m125 50 c3 -5 -1 -10 -9 -10 -12 0 -16 -11 -16 -50 0 -27 -4
-50 -10 -50 -5 0 -10 23 -10 50 0 38 -4 50 -15 50 -8 0 -15 5 -15 10 0 6 15
10 34 10 19 0 38 -4 41 -10z m125 0 c0 -5 -7 -10 -15 -10 -11 0 -15 -12 -15
-50 0 -27 -4 -50 -10 -50 -5 0 -10 23 -10 50 0 38 -4 50 -15 50 -8 0 -15 5
-15 10 0 6 18 10 40 10 22 0 40 -4 40 -10z m-1373 -42 l21 -28 23 35 c13 19
27 35 32 35 4 0 7 -25 7 -55 0 -30 -4 -55 -10 -55 -5 0 -10 16 -10 36 l0 37
-22 -28 -22 -28 -18 23 -18 22 0 -31 c0 -17 -4 -31 -10 -31 -5 0 -10 26 -10
57 0 31 4 53 8 48 5 -6 18 -22 29 -37z m889 -85 c-10 -10 -19 5 -10 18 6 11 8
11 12 0 2 -7 1 -15 -2 -18z"/>
<path d="M2255 3840 c-3 -5 1 -10 10 -10 9 0 13 5 10 10 -3 6 -8 10 -10 10 -2
0 -7 -4 -10 -10z"/>
<path d="M2305 3710 c4 -6 11 -8 16 -5 14 9 11 15 -7 15 -8 0 -12 -5 -9 -10z"/>
<path d="M1860 3649 c0 -5 5 -7 10 -4 6 3 10 8 10 11 0 2 -4 4 -10 4 -5 0 -10
-5 -10 -11z"/>
<path d="M1910 3560 c0 -5 5 -10 10 -10 6 0 10 5 10 10 0 6 -4 10 -10 10 -5 0
-10 -4 -10 -10z"/>
<path d="M1770 3529 c0 -5 5 -7 10 -4 6 3 10 8 10 11 0 2 -4 4 -10 4 -5 0 -10
-5 -10 -11z"/>
<path d="M1785 3400 c3 -5 8 -10 11 -10 2 0 4 5 4 10 0 6 -5 10 -11 10 -5 0
-7 -4 -4 -10z"/>
<path d="M1595 3270 c-3 -5 -1 -10 4 -10 6 0 11 5 11 10 0 6 -2 10 -4 10 -3 0
-8 -4 -11 -10z"/>
<path d="M1205 3160 c-3 -5 -1 -10 4 -10 6 0 11 5 11 10 0 6 -2 10 -4 10 -3 0
-8 -4 -11 -10z"/>
<path d="M830 2980 c0 -5 5 -10 10 -10 6 0 10 5 10 10 0 6 -4 10 -10 10 -5 0
-10 -4 -10 -10z"/>
<path d="M1238 2970 c-1 -5 -39 -14 -83 -20 -81 -10 -170 -34 -193 -53 -34
-27 63 -82 288 -163 l145 -52 6 91 c3 51 10 113 14 140 l7 47 -81 0 c-47 0
-81 4 -81 10 0 13 -17 13 -22 0z"/>
<path d="M1770 2908 c-7 -29 -14 -120 -17 -203 -4 -125 -2 -166 15 -247 67
-324 291 -544 646 -635 275 -70 562 -3 800 187 76 60 161 148 153 157 -3 2
-86 9 -184 14 -506 25 -790 86 -839 181 -24 47 -18 103 15 140 l29 33 189 -1
c103 0 271 -7 373 -14 276 -21 836 -19 965 3 200 35 211 53 65 103 -340 117
-949 239 -1465 294 -168 18 -539 40 -682 40 l-51 0 -12 -52z"/>
<path d="M1685 2930 c-3 -5 -1 -10 4 -10 6 0 11 5 11 10 0 6 -2 10 -4 10 -3 0
-8 -4 -11 -10z"/>
<path d="M880 2920 c0 -5 5 -10 10 -10 6 0 10 5 10 10 0 6 -4 10 -10 10 -5 0
-10 -4 -10 -10z"/>
<path d="M845 2900 c3 -5 8 -10 11 -10 2 0 4 5 4 10 0 6 -5 10 -11 10 -5 0 -7
-4 -4 -10z"/>
<path d="M1065 2720 c-3 -5 1 -10 10 -10 9 0 13 5 10 10 -3 6 -8 10 -10 10 -2
0 -7 -4 -10 -10z"/>
<path d="M1180 2690 c0 -5 5 -10 11 -10 5 0 7 5 4 10 -3 6 -8 10 -11 10 -2 0
-4 -4 -4 -10z"/>
<path d="M1460 2550 c0 -5 5 -10 11 -10 5 0 7 5 4 10 -3 6 -8 10 -11 10 -2 0
-4 -4 -4 -10z"/>
<path d="M1615 2461 c-3 -5 -1 -12 5 -16 5 -3 10 1 10 9 0 18 -6 21 -15 7z"/>
<path d="M1525 2450 c4 -6 11 -8 16 -5 14 9 11 15 -7 15 -8 0 -12 -5 -9 -10z"/>
<path d="M1775 2031 c-3 -5 -1 -12 5 -16 5 -3 10 1 10 9 0 18 -6 21 -15 7z"/>
<path d="M1950 1854 c0 -8 5 -12 10 -9 6 4 8 11 5 16 -9 14 -15 11 -15 -7z"/>
<path d="M2061 1354 c0 -11 3 -14 6 -6 3 7 2 16 -1 19 -3 4 -6 -2 -5 -13z"/>
<path d="M2346 1361 c-4 -7 -5 -15 -2 -18 9 -9 19 4 14 18 -4 11 -6 11 -12 0z"/>
<path d="M2990 1360 c0 -32 4 -40 18 -40 38 0 54 37 26 64 -28 28 -44 20 -44
-24z"/>
<path d="M1646 1115 c-3 -9 0 -15 9 -15 9 0 12 6 9 15 -4 8 -7 15 -9 15 -2 0
-5 -7 -9 -15z"/>
<path d="M2010 1131 c0 -15 6 -21 21 -21 25 0 22 33 -4 38 -12 2 -17 -3 -17
-17z"/>
<path d="M2150 1135 c-7 -9 -10 -25 -6 -40 6 -22 11 -26 39 -23 25 2 33 8 35
26 7 44 -41 70 -68 37z"/>
<path d="M2480 1136 c-6 -8 -10 -25 -8 -38 2 -18 10 -24 35 -26 28 -3 33 1 39
23 11 45 -37 75 -66 41z"/>
<path d="M3440 1135 c0 -8 7 -15 15 -15 8 0 15 7 15 15 0 8 -7 15 -15 15 -8 0
-15 -7 -15 -15z"/>
<path d="M3440 1086 c0 -10 9 -16 21 -16 24 0 21 23 -4 28 -10 2 -17 -3 -17
-12z"/>
</g>
</svg>
